<svg xmlns="http://www.w3.org/2000/svg" width="135" height="48.3" viewBox="0 0 135 48.3">
  <path id="Path_42" data-name="Path 42" d="M2.1,0H12.6c3.75,0,6.15-2.4,6.15-5.85A5.564,5.564,0,0,0,16.2-10.5v-.15a5.493,5.493,0,0,0,2.25-4.5c0-3.45-2.4-5.85-6.15-5.85H2.1ZM6.9-4.2V-8.4h4.95a2.051,2.051,0,0,1,2.1,2.1,2.051,2.051,0,0,1-2.1,2.1Zm0-8.4v-4.2h4.65a2.051,2.051,0,0,1,2.1,2.1,2.051,2.051,0,0,1-2.1,2.1ZM27,.3a5.533,5.533,0,0,0,4.2-1.65h.15L31.65,0h3.9V-9.78c0-3.42-2.4-5.82-6.9-5.82-4.2,0-6.45,2.25-6.75,4.95h4.35A2.345,2.345,0,0,1,28.65-12a2.169,2.169,0,0,1,2.4,2.25v.3H27.6c-4.2,0-6.3,2.1-6.3,4.95C21.3-1.8,23.4.3,27,.3Zm.9-3.45c-1.35,0-2.1-.75-2.1-1.65s.75-1.65,2.4-1.65h2.85v.3A2.877,2.877,0,0,1,27.9-3.15ZM39,0h4.5V-8.4a2.386,2.386,0,0,1,2.7-2.7h2.7v-4.2H46.05a3.143,3.143,0,0,0-2.7,1.2H43.2l-.3-1.2H39ZM59.85.3C63.9.3,67.2-3,67.2-7.65s-3.3-7.95-7.35-7.95a5.047,5.047,0,0,0-3.9,1.5H55.8V-21H51.3V0h3.9l.3-1.5h.15A5.013,5.013,0,0,0,59.85.3Zm-.6-4.2A3.475,3.475,0,0,1,55.8-7.65a3.475,3.475,0,0,1,3.45-3.75A3.475,3.475,0,0,1,62.7-7.65,3.475,3.475,0,0,1,59.25-3.9Zm18,4.2A7.64,7.64,0,0,0,85.2-7.65a7.64,7.64,0,0,0-7.95-7.95A7.64,7.64,0,0,0,69.3-7.65,7.64,7.64,0,0,0,77.25.3Zm0-4.2A3.475,3.475,0,0,1,73.8-7.65a3.475,3.475,0,0,1,3.45-3.75A3.475,3.475,0,0,1,80.7-7.65,3.475,3.475,0,0,1,77.25-3.9ZM88.05,0h4.5V-8.4a2.386,2.386,0,0,1,2.7-2.7h2.7v-4.2H95.1a3.143,3.143,0,0,0-2.7,1.2h-.15l-.3-1.2h-3.9Zm16.5.3a5.533,5.533,0,0,0,4.2-1.65h.15L109.2,0h3.9V-9.78c0-3.42-2.4-5.82-6.9-5.82-4.2,0-6.45,2.25-6.75,4.95h4.35A2.345,2.345,0,0,1,106.2-12a2.169,2.169,0,0,1,2.4,2.25v.3h-3.45c-4.2,0-6.3,2.1-6.3,4.95C98.85-1.8,100.95.3,104.55.3Zm.9-3.45c-1.35,0-2.1-.75-2.1-1.65s.75-1.65,2.4-1.65h2.85v.3A2.877,2.877,0,0,1,105.45-3.15ZM10.8,27.3c5.4,0,8.85-3.45,8.85-9V6h-4.8V18.3a4.06,4.06,0,1,1-8.1,0V6H1.95V18.3C1.95,23.85,5.4,27.3,10.8,27.3ZM23.4,27h4.5V18.6a2.386,2.386,0,0,1,2.7-2.7h2.7V11.7H30.45a3.143,3.143,0,0,0-2.7,1.2H27.6l-.3-1.2H23.4Zm20.85.3c4.05,0,7.35-3.3,7.35-7.95s-3.3-7.95-7.35-7.95a5.047,5.047,0,0,0-3.9,1.5H40.2V6H35.7V27h3.9l.3-1.5h.15A5.013,5.013,0,0,0,44.25,27.3Zm-.6-4.2a3.475,3.475,0,0,1-3.45-3.75,3.462,3.462,0,1,1,6.9,0A3.475,3.475,0,0,1,43.65,23.1ZM59.4,27.3a5.533,5.533,0,0,0,4.2-1.65h.15l.3,1.35h3.9V17.22c0-3.42-2.4-5.82-6.9-5.82-4.2,0-6.45,2.25-6.75,4.95h4.35A2.345,2.345,0,0,1,61.05,15a2.169,2.169,0,0,1,2.4,2.25v.3H60c-4.2,0-6.3,2.1-6.3,4.95C53.7,25.2,55.8,27.3,59.4,27.3Zm.9-3.45c-1.35,0-2.1-.75-2.1-1.65s.75-1.65,2.4-1.65h2.85v.3A2.877,2.877,0,0,1,60.3,23.85ZM71.4,27h4.5V18.6a2.85,2.85,0,1,1,5.7,0V27h4.5V17.7a5.946,5.946,0,0,0-6.15-6.3,5.533,5.533,0,0,0-4.2,1.65H75.6l-.3-1.35H71.4Zm25.35.3a7.64,7.64,0,0,0,7.95-7.95,7.95,7.95,0,1,0-15.9,0A7.64,7.64,0,0,0,96.75,27.3Zm0-4.2a3.475,3.475,0,0,1-3.45-3.75,3.462,3.462,0,1,1,6.9,0A3.475,3.475,0,0,1,96.75,23.1ZM110.7,27h6l5.1-15.3h-4.65L114,21.75h-.6L110.25,11.7H105.6Zm17.7.3a5.533,5.533,0,0,0,4.2-1.65h.15l.3,1.35h3.9V17.22c0-3.42-2.4-5.82-6.9-5.82-4.2,0-6.45,2.25-6.75,4.95h4.35a2.345,2.345,0,0,1,2.4-1.35,2.169,2.169,0,0,1,2.4,2.25v.3H129c-4.2,0-6.3,2.1-6.3,4.95C122.7,25.2,124.8,27.3,128.4,27.3Zm.9-3.45c-1.35,0-2.1-.75-2.1-1.65s.75-1.65,2.4-1.65h2.85v.3A2.877,2.877,0,0,1,129.3,23.85Zm-.75-14.4h3.75l3.6-4.35h-4.5Z" transform="translate(-1.95 21)" fill="#fff"/>
</svg>
